<mxfile host="app.diagrams.net" modified="2021-06-28T20:32:25.961Z" agent="5.0 (Macintosh; Intel Mac OS X 10_15_6) AppleWebKit/537.36 (KHTML, like Gecko) Chrome/91.0.4472.114 Safari/537.36" etag="ZIqCCQ5JlH2e6aVUQeEB" version="14.8.2" type="github">
  <diagram name="Page-1" id="80d4a630-b321-0f5e-ff81-c5a36ef4752d">
    <mxGraphModel dx="2526" dy="794" grid="1" gridSize="10" guides="1" tooltips="1" connect="1" arrows="1" fold="1" page="1" pageScale="1" pageWidth="1100" pageHeight="850" background="none" math="0" shadow="0">
      <root>
        <mxCell id="0" />
        <mxCell id="1" parent="0" />
        <mxCell id="5c82df7aa0dc6260-15" value="&lt;font style=&quot;font-size: 11px&quot;&gt;&lt;br&gt;NAS shared filesystem&lt;br&gt;&lt;/font&gt;" style="ellipse;whiteSpace=wrap;html=1;rounded=1;shadow=0;comic=0;labelBackgroundColor=none;strokeColor=#6881B3;strokeWidth=2;fillColor=#CCFFCC;fontFamily=Helvetica;fontSize=22;fontColor=#000000;verticalAlign=middle;gradientColor=none;gradientDirection=north;spacingBottom=36;" parent="1" vertex="1">
          <mxGeometry x="-355" y="313" width="840" height="477" as="geometry" />
        </mxCell>
        <mxCell id="n6AHcon2Cn4pnh10fK8--1" value="" style="fontColor=#0066CC;verticalAlign=top;verticalLabelPosition=bottom;labelPosition=center;align=center;html=1;outlineConnect=0;fillColor=#CCCCCC;strokeColor=#6881B3;gradientColor=none;gradientDirection=north;strokeWidth=2;shape=mxgraph.networks.firewall;" vertex="1" parent="1">
          <mxGeometry x="25" y="150" width="80" height="80" as="geometry" />
        </mxCell>
        <mxCell id="n6AHcon2Cn4pnh10fK8--6" value="" style="fontColor=#0066CC;verticalAlign=top;verticalLabelPosition=bottom;labelPosition=center;align=center;html=1;outlineConnect=0;fillColor=#CCCCCC;strokeColor=#6881B3;gradientColor=none;gradientDirection=north;strokeWidth=2;shape=mxgraph.networks.proxy_server;" vertex="1" parent="1">
          <mxGeometry x="40" y="290" width="65" height="45" as="geometry" />
        </mxCell>
        <mxCell id="n6AHcon2Cn4pnh10fK8--7" value="&lt;br&gt;&lt;br&gt;DMZ&amp;nbsp;&lt;br&gt;&lt;br&gt;Proxy server&lt;br&gt;Scan plugins for CVE" style="html=1;outlineConnect=0;gradientDirection=north;strokeWidth=2;shape=mxgraph.networks.cloud;fillColor=none;" vertex="1" parent="1">
          <mxGeometry x="-130" y="240" width="270" height="125" as="geometry" />
        </mxCell>
        <mxCell id="n6AHcon2Cn4pnh10fK8--8" value="&lt;font color=&quot;#0000ff&quot;&gt;Internet&lt;br&gt;https://updates.jenkins-ci.org/latest&lt;/font&gt;" style="html=1;outlineConnect=0;fillColor=#CCCCCC;strokeColor=#6881B3;gradientColor=none;gradientDirection=north;strokeWidth=2;shape=mxgraph.networks.cloud;fontColor=#ffffff;" vertex="1" parent="1">
          <mxGeometry x="150" y="60" width="330" height="80" as="geometry" />
        </mxCell>
        <mxCell id="n6AHcon2Cn4pnh10fK8--9" value="" style="endArrow=classic;startArrow=classic;html=1;exitX=1;exitY=1;exitDx=0;exitDy=0;exitPerimeter=0;" edge="1" parent="1" source="n6AHcon2Cn4pnh10fK8--1">
          <mxGeometry width="50" height="50" relative="1" as="geometry">
            <mxPoint x="210" y="200" as="sourcePoint" />
            <mxPoint x="260" y="150" as="targetPoint" />
          </mxGeometry>
        </mxCell>
        <mxCell id="n6AHcon2Cn4pnh10fK8--10" value="" style="endArrow=classic;startArrow=classic;html=1;exitX=1;exitY=0;exitDx=0;exitDy=0;" edge="1" parent="1" source="n6AHcon2Cn4pnh10fK8--16">
          <mxGeometry width="50" height="50" relative="1" as="geometry">
            <mxPoint x="50" y="380" as="sourcePoint" />
            <mxPoint x="70" y="335" as="targetPoint" />
          </mxGeometry>
        </mxCell>
        <mxCell id="n6AHcon2Cn4pnh10fK8--12" value="" style="fontColor=#0066CC;verticalAlign=top;verticalLabelPosition=bottom;labelPosition=center;align=center;html=1;outlineConnect=0;fillColor=#CCCCCC;strokeColor=#6881B3;gradientColor=none;gradientDirection=north;strokeWidth=2;shape=mxgraph.networks.nas_filer;" vertex="1" parent="1">
          <mxGeometry x="31.25" y="501" width="67.5" height="25" as="geometry" />
        </mxCell>
        <mxCell id="n6AHcon2Cn4pnh10fK8--13" value="" style="endArrow=classic;startArrow=classic;html=1;" edge="1" parent="1" target="n6AHcon2Cn4pnh10fK8--1">
          <mxGeometry width="50" height="50" relative="1" as="geometry">
            <mxPoint x="40" y="300" as="sourcePoint" />
            <mxPoint x="90" y="250" as="targetPoint" />
          </mxGeometry>
        </mxCell>
        <mxCell id="n6AHcon2Cn4pnh10fK8--14" value="" style="aspect=fixed;perimeter=ellipsePerimeter;html=1;align=center;shadow=0;dashed=0;spacingTop=3;image;image=img/lib/active_directory/windows_server_2.svg;fillColor=none;" vertex="1" parent="1">
          <mxGeometry x="240" y="476" width="60" height="75" as="geometry" />
        </mxCell>
        <mxCell id="n6AHcon2Cn4pnh10fK8--15" value="" style="shape=image;html=1;verticalAlign=top;verticalLabelPosition=bottom;labelBackgroundColor=#ffffff;imageAspect=0;aspect=fixed;image=https://cdn1.iconfinder.com/data/icons/Futurosoft%20Icons%200.5.2/128x128/apps/redhat.png;fillColor=none;" vertex="1" parent="1">
          <mxGeometry x="-130" y="526" width="28" height="28" as="geometry" />
        </mxCell>
        <mxCell id="n6AHcon2Cn4pnh10fK8--16" value="" style="aspect=fixed;perimeter=ellipsePerimeter;html=1;align=center;shadow=0;dashed=0;spacingTop=3;image;image=img/lib/active_directory/generic_server.svg;fillColor=none;" vertex="1" parent="1">
          <mxGeometry x="-168" y="486.14" width="38" height="67.86" as="geometry" />
        </mxCell>
        <mxCell id="n6AHcon2Cn4pnh10fK8--23" value="" style="endArrow=classic;html=1;exitX=1;exitY=0.5;exitDx=0;exitDy=0;" edge="1" parent="1" source="n6AHcon2Cn4pnh10fK8--16">
          <mxGeometry width="50" height="50" relative="1" as="geometry">
            <mxPoint x="10" y="570" as="sourcePoint" />
            <mxPoint x="30" y="520" as="targetPoint" />
          </mxGeometry>
        </mxCell>
        <mxCell id="n6AHcon2Cn4pnh10fK8--26" value="" style="endArrow=classic;html=1;exitX=0;exitY=0.5;exitDx=0;exitDy=0;entryX=1;entryY=0.5;entryDx=0;entryDy=0;entryPerimeter=0;" edge="1" parent="1" source="n6AHcon2Cn4pnh10fK8--14" target="n6AHcon2Cn4pnh10fK8--12">
          <mxGeometry width="50" height="50" relative="1" as="geometry">
            <mxPoint x="10" y="560" as="sourcePoint" />
            <mxPoint x="60" y="510" as="targetPoint" />
          </mxGeometry>
        </mxCell>
        <mxCell id="n6AHcon2Cn4pnh10fK8--29" value="rclone port 22" style="shape=parallelogram;perimeter=parallelogramPerimeter;whiteSpace=wrap;html=1;fixedSize=1;fillColor=none;" vertex="1" parent="1">
          <mxGeometry x="-130" y="486.14" width="135" height="35" as="geometry" />
        </mxCell>
        <mxCell id="n6AHcon2Cn4pnh10fK8--30" value="&lt;br&gt;" style="shape=parallelogram;perimeter=parallelogramPerimeter;whiteSpace=wrap;html=1;fixedSize=1;fillColor=none;" vertex="1" parent="1">
          <mxGeometry x="-130" y="486.14" width="135" height="35" as="geometry" />
        </mxCell>
        <mxCell id="n6AHcon2Cn4pnh10fK8--31" value="rclone port 22" style="shape=parallelogram;perimeter=parallelogramPerimeter;whiteSpace=wrap;html=1;fixedSize=1;fillColor=none;" vertex="1" parent="1">
          <mxGeometry x="130" y="476" width="110" height="35" as="geometry" />
        </mxCell>
        <mxCell id="n6AHcon2Cn4pnh10fK8--32" value="&lt;h1&gt;&lt;font style=&quot;font-size: 12px&quot;&gt;Staging node for Jenkins Plugins&lt;/font&gt;&lt;/h1&gt;" style="text;html=1;strokeColor=none;fillColor=none;spacing=5;spacingTop=-20;whiteSpace=wrap;overflow=hidden;rounded=0;" vertex="1" parent="1">
          <mxGeometry x="-280" y="551" width="200" height="49" as="geometry" />
        </mxCell>
        <mxCell id="n6AHcon2Cn4pnh10fK8--34" value="&lt;h1&gt;&lt;font style=&quot;font-size: 12px&quot;&gt;Jenkins Controller (Master)&lt;/font&gt;&lt;/h1&gt;" style="text;html=1;strokeColor=none;fillColor=none;spacing=5;spacingTop=-20;whiteSpace=wrap;overflow=hidden;rounded=0;" vertex="1" parent="1">
          <mxGeometry x="270" y="540" width="165" height="40" as="geometry" />
        </mxCell>
        <mxCell id="n6AHcon2Cn4pnh10fK8--36" value="" style="aspect=fixed;perimeter=ellipsePerimeter;html=1;align=center;shadow=0;dashed=0;spacingTop=3;image;image=img/lib/active_directory/windows_server_2.svg;fillColor=none;" vertex="1" parent="1">
          <mxGeometry x="240" y="630" width="60" height="75" as="geometry" />
        </mxCell>
        <mxCell id="n6AHcon2Cn4pnh10fK8--37" value="&lt;h1&gt;&lt;font style=&quot;font-size: 12px&quot;&gt;Jenkins (Slave)&lt;/font&gt;&lt;/h1&gt;" style="text;html=1;strokeColor=none;fillColor=none;spacing=5;spacingTop=-20;whiteSpace=wrap;overflow=hidden;rounded=0;" vertex="1" parent="1">
          <mxGeometry x="210" y="705" width="105" height="39" as="geometry" />
        </mxCell>
        <mxCell id="n6AHcon2Cn4pnh10fK8--38" value="" style="endArrow=classic;startArrow=classic;html=1;" edge="1" parent="1">
          <mxGeometry width="50" height="50" relative="1" as="geometry">
            <mxPoint x="260" y="640" as="sourcePoint" />
            <mxPoint x="260" y="540" as="targetPoint" />
          </mxGeometry>
        </mxCell>
        <mxCell id="n6AHcon2Cn4pnh10fK8--39" value="" style="shape=image;html=1;verticalAlign=top;verticalLabelPosition=bottom;labelBackgroundColor=#ffffff;imageAspect=0;aspect=fixed;image=https://cdn4.iconfinder.com/data/icons/logos-brands-5/24/jenkins-128.png;fillColor=none;" vertex="1" parent="1">
          <mxGeometry x="310" y="521" width="28" height="28" as="geometry" />
        </mxCell>
        <mxCell id="n6AHcon2Cn4pnh10fK8--40" value="" style="shape=image;html=1;verticalAlign=top;verticalLabelPosition=bottom;labelBackgroundColor=#ffffff;imageAspect=0;aspect=fixed;image=https://cdn4.iconfinder.com/data/icons/logos-brands-5/24/jenkins-128.png;fillColor=none;" vertex="1" parent="1">
          <mxGeometry x="301" y="677" width="28" height="28" as="geometry" />
        </mxCell>
        <mxCell id="n6AHcon2Cn4pnh10fK8--41" value="HTTPS port 443" style="text;html=1;strokeColor=none;fillColor=none;align=center;verticalAlign=middle;whiteSpace=wrap;rounded=0;" vertex="1" parent="1">
          <mxGeometry x="150" y="200" width="130" height="20" as="geometry" />
        </mxCell>
        <mxCell id="n6AHcon2Cn4pnh10fK8--46" value="HTTPS port 443" style="text;html=1;strokeColor=none;fillColor=none;align=center;verticalAlign=middle;whiteSpace=wrap;rounded=0;" vertex="1" parent="1">
          <mxGeometry x="-50" y="425" width="130" height="20" as="geometry" />
        </mxCell>
      </root>
    </mxGraphModel>
  </diagram>
</mxfile>
